<svg id="visual" viewBox="0 0 900 600" width="900" height="600" xmlns="http://www.w3.org/2000/svg" xmlns:xlink="http://www.w3.org/1999/xlink" version="1.1"><rect x="0" y="0" width="900" height="600" fill="#191528"></rect><path d="M0 265L15 256.3C30 247.7 60 230.3 90 217C120 203.7 150 194.3 180 201C210 207.7 240 230.3 270 222.5C300 214.7 330 176.3 360 157.5C390 138.7 420 139.3 450 159C480 178.7 510 217.3 540 224.3C570 231.3 600 206.7 630 193.8C660 181 690 180 720 170.7C750 161.3 780 143.7 810 147.3C840 151 870 176 885 188.5L900 201L900 601L885 601C870 601 840 601 810 601C780 601 750 601 720 601C690 601 660 601 630 601C600 601 570 601 540 601C510 601 480 601 450 601C420 601 390 601 360 601C330 601 300 601 270 601C240 601 210 601 180 601C150 601 120 601 90 601C60 601 30 601 15 601L0 601Z" fill="#e63946"></path><path d="M0 242L15 243.3C30 244.7 60 247.3 90 239.7C120 232 150 214 180 213C210 212 240 228 270 240.7C300 253.3 330 262.7 360 273.3C390 284 420 296 450 295.3C480 294.7 510 281.3 540 278C570 274.7 600 281.3 630 268.5C660 255.7 690 223.3 720 213.3C750 203.3 780 215.7 810 237.7C840 259.7 870 291.3 885 307.2L900 323L900 601L885 601C870 601 840 601 810 601C780 601 750 601 720 601C690 601 660 601 630 601C600 601 570 601 540 601C510 601 480 601 450 601C420 601 390 601 360 601C330 601 300 601 270 601C240 601 210 601 180 601C150 601 120 601 90 601C60 601 30 601 15 601L0 601Z" fill="#eb4a4e"></path><path d="M0 368L15 374C30 380 60 392 90 381.3C120 370.7 150 337.3 180 334.7C210 332 240 360 270 366.2C300 372.3 330 356.7 360 351.5C390 346.3 420 351.7 450 342.3C480 333 510 309 540 310.2C570 311.3 600 337.7 630 347.2C660 356.7 690 349.3 720 339.2C750 329 780 316 810 311.3C840 306.7 870 310.3 885 312.2L900 314L900 601L885 601C870 601 840 601 810 601C780 601 750 601 720 601C690 601 660 601 630 601C600 601 570 601 540 601C510 601 480 601 450 601C420 601 390 601 360 601C330 601 300 601 270 601C240 601 210 601 180 601C150 601 120 601 90 601C60 601 30 601 15 601L0 601Z" fill="#f05856"></path><path d="M0 452L15 454.8C30 457.7 60 463.3 90 456C120 448.7 150 428.3 180 411.2C210 394 240 380 270 375.8C300 371.7 330 377.3 360 390C390 402.7 420 422.3 450 423.7C480 425 510 408 540 407.5C570 407 600 423 630 436C660 449 690 459 720 462C750 465 780 461 810 448.5C840 436 870 415 885 404.5L900 394L900 601L885 601C870 601 840 601 810 601C780 601 750 601 720 601C690 601 660 601 630 601C600 601 570 601 540 601C510 601 480 601 450 601C420 601 390 601 360 601C330 601 300 601 270 601C240 601 210 601 180 601C150 601 120 601 90 601C60 601 30 601 15 601L0 601Z" fill="#f5655f"></path><path d="M0 453L15 458.5C30 464 60 475 90 490.7C120 506.3 150 526.7 180 522.7C210 518.7 240 490.3 270 489C300 487.7 330 513.3 360 519.3C390 525.3 420 511.7 450 500.5C480 489.3 510 480.7 540 474.3C570 468 600 464 630 473.7C660 483.3 690 506.7 720 518.3C750 530 780 530 810 519.2C840 508.3 870 486.7 885 475.8L900 465L900 601L885 601C870 601 840 601 810 601C780 601 750 601 720 601C690 601 660 601 630 601C600 601 570 601 540 601C510 601 480 601 450 601C420 601 390 601 360 601C330 601 300 601 270 601C240 601 210 601 180 601C150 601 120 601 90 601C60 601 30 601 15 601L0 601Z" fill="#fa7268"></path></svg>