<svg id="visual" viewBox="0 0 900 600" width="900" height="600" xmlns="http://www.w3.org/2000/svg" xmlns:xlink="http://www.w3.org/1999/xlink" version="1.1"><path d="M0 147L21.5 156.2C43 165.3 86 183.7 128.8 204.5C171.7 225.3 214.3 248.7 257.2 237C300 225.3 343 178.7 385.8 155.5C428.7 132.3 471.3 132.7 514.2 142.5C557 152.3 600 171.7 642.8 171.3C685.7 171 728.3 151 771.2 143.8C814 136.7 857 142.3 878.5 145.2L900 148L900 601L878.5 601C857 601 814 601 771.2 601C728.3 601 685.7 601 642.8 601C600 601 557 601 514.2 601C471.3 601 428.7 601 385.8 601C343 601 300 601 257.2 601C214.3 601 171.7 601 128.8 601C86 601 43 601 21.5 601L0 601Z" fill="#fa7268"></path><path d="M0 339L21.5 334.3C43 329.7 86 320.3 128.8 308.3C171.7 296.3 214.3 281.7 257.2 266.2C300 250.7 343 234.3 385.8 246.5C428.7 258.7 471.3 299.3 514.2 321.8C557 344.3 600 348.7 642.8 348.7C685.7 348.7 728.3 344.3 771.2 333.7C814 323 857 306 878.5 297.5L900 289L900 601L878.5 601C857 601 814 601 771.2 601C728.3 601 685.7 601 642.8 601C600 601 557 601 514.2 601C471.3 601 428.7 601 385.8 601C343 601 300 601 257.2 601C214.3 601 171.7 601 128.8 601C86 601 43 601 21.5 601L0 601Z" fill="#f5655f"></path><path d="M0 280L21.5 300.3C43 320.7 86 361.3 128.8 376.3C171.7 391.3 214.3 380.7 257.2 383C300 385.3 343 400.7 385.8 408C428.7 415.3 471.3 414.7 514.2 397.8C557 381 600 348 642.8 325C685.7 302 728.3 289 771.2 289.8C814 290.7 857 305.3 878.5 312.7L900 320L900 601L878.5 601C857 601 814 601 771.2 601C728.3 601 685.7 601 642.8 601C600 601 557 601 514.2 601C471.3 601 428.7 601 385.8 601C343 601 300 601 257.2 601C214.3 601 171.7 601 128.8 601C86 601 43 601 21.5 601L0 601Z" fill="#f05856"></path><path d="M0 402L21.5 396.5C43 391 86 380 128.8 380.5C171.7 381 214.3 393 257.2 404.5C300 416 343 427 385.8 435.8C428.7 444.7 471.3 451.3 514.2 441.5C557 431.7 600 405.3 642.8 396C685.7 386.7 728.3 394.3 771.2 411.2C814 428 857 454 878.5 467L900 480L900 601L878.5 601C857 601 814 601 771.2 601C728.3 601 685.7 601 642.8 601C600 601 557 601 514.2 601C471.3 601 428.7 601 385.8 601C343 601 300 601 257.2 601C214.3 601 171.7 601 128.8 601C86 601 43 601 21.5 601L0 601Z" fill="#eb4a4e"></path><path d="M0 488L21.5 488C43 488 86 488 128.8 491.5C171.7 495 214.3 502 257.2 500C300 498 343 487 385.8 490C428.7 493 471.3 510 514.2 508.3C557 506.7 600 486.3 642.8 489.8C685.7 493.3 728.3 520.7 771.2 526.8C814 533 857 518 878.5 510.5L900 503L900 601L878.5 601C857 601 814 601 771.2 601C728.3 601 685.7 601 642.8 601C600 601 557 601 514.2 601C471.3 601 428.7 601 385.8 601C343 601 300 601 257.2 601C214.3 601 171.7 601 128.8 601C86 601 43 601 21.5 601L0 601Z" fill="#e63946"></path></svg>